<?xml version="1.0" encoding="UTF-8"?>
<svg id="Layer_1" data-name="Layer 1"
     xmlns="http://www.w3.org/2000/svg"
     viewBox="0 0 128 128"
     fill="currentColor">
  <path d="M27.9-.07C22.71-.07,18.26.61,14.68,1.96c-3.66,1.38-6.63,3.41-8.83,6.02-2.19,2.59-3.73,5.77-4.6,9.46-.83,3.54-1.26,7.5-1.26,11.77v69.69c0,4.28.43,8.2,1.26,11.66.86,3.58,2.36,6.71,4.45,9.31,2.13,2.63,5.07,4.66,8.73,6.04,3.58,1.35,8.11,2.03,13.46,2.03s9.87-.68,13.45-2.03c3.67-1.38,6.61-3.42,8.73-6.04,2.08-2.58,3.58-5.71,4.45-9.31.83-3.48,1.26-7.41,1.26-11.66V29.21c0-8.79-1.94-15.9-5.78-21.14C46.05,2.67,38.6-.07,27.9-.07ZM52.28,42.85v30.21c-1.87-3.49-4.17-6.46-6.9-8.78-1.23-1.05-2.53-2.04-3.86-2.97V29.21c0-5.88-1.03-10.03-3.16-12.69-2.2-2.74-5.72-4.13-10.45-4.13s-8.28,1.44-10.47,4.27c-2.12,2.73-3.15,6.84-3.15,12.55v4.55c0,5.25,1.02,9.58,3.04,12.87,1.96,3.2,4.46,5.98,7.45,8.26,2.89,2.2,6.06,4.23,9.44,6.02,3.19,1.7,6.18,3.72,8.89,6.01,2.63,2.23,4.85,5.15,6.58,8.66,1.73,3.51,2.61,8.13,2.61,13.73v9.58c0,3.99-.39,7.64-1.16,10.85-.75,3.09-2.02,5.76-3.78,7.94-1.73,2.14-4.16,3.81-7.24,4.97-3.18,1.2-7.28,1.81-12.2,1.81s-9.03-.61-12.2-1.81c-3.07-1.16-5.51-2.83-7.24-4.97-1.76-2.19-3.04-4.86-3.78-7.94-.77-3.2-1.16-6.85-1.16-10.85v-48.27c1.86,3.56,4.15,6.63,6.86,9.08,1.24,1.13,2.56,2.14,3.9,3.12v36.07c0,5.9,1.04,10.02,3.18,12.59,2.19,2.65,5.7,3.99,10.43,3.99s8.25-1.39,10.45-4.13c2.13-2.66,3.16-6.73,3.16-12.45v-9.1c0-5.08-1.02-9.3-3.05-12.54-1.97-3.12-4.48-5.82-7.46-8.02-2.86-2.1-6.03-4.09-9.42-5.89-3.16-1.67-6.13-3.76-8.84-6.21-2.65-2.39-4.87-5.43-6.62-9.05-1.73-3.57-2.61-8.39-2.61-14.33v-4.55c0-4,.39-7.7,1.17-10.98.74-3.16,2.04-5.85,3.87-8.02,1.81-2.15,4.29-3.83,7.38-5,3.17-1.2,7.2-1.8,11.96-1.8,9.52,0,16.01,2.26,19.27,6.71,3.39,4.63,5.11,11.05,5.11,19.1v13.65ZM38,29.21v29.84c-.7-.42-1.42-.82-2.14-1.2-3.21-1.7-6.22-3.62-8.95-5.71-2.64-2.02-4.86-4.47-6.59-7.31-1.68-2.74-2.53-6.47-2.53-11.07v-4.55c0-4.85.81-8.36,2.42-10.44,1.51-1.96,4.03-2.91,7.68-2.91s6.18.92,7.7,2.81c1.6,1.99,2.41,5.54,2.41,10.53ZM17.79,82.61v-17.5c.71.43,1.4.92,2.13,1.31,3.24,1.72,6.26,3.61,8.98,5.61,2.63,1.94,4.84,4.32,6.57,7.06,1.67,2.67,2.52,6.27,2.52,10.7v9.1c0,4.84-.81,8.3-2.41,10.29-1.52,1.9-4.04,2.82-7.7,2.82s-6.22-.91-7.72-2.72c-1.58-1.9-2.39-5.4-2.39-10.39v-16.28Z"/>
  <path d="M122.22,8.07C118.26,2.67,110.81-.07,100.1-.07c-5.19,0-9.63.68-13.21,2.03-3.66,1.38-6.63,3.41-8.83,6.02-2.19,2.59-3.73,5.77-4.6,9.46-.83,3.52-1.26,7.48-1.26,11.77v69.69c0,4.29.43,8.22,1.26,11.66.86,3.58,2.36,6.71,4.45,9.31,2.13,2.63,5.07,4.66,8.73,6.04,3.58,1.35,8.11,2.03,13.46,2.03s9.87-.68,13.45-2.03c3.67-1.38,6.61-3.42,8.73-6.04,2.08-2.58,3.58-5.71,4.45-9.31.83-3.48,1.26-7.41,1.26-11.66V29.21c0-8.79-1.94-15.9-5.78-21.14ZM124.49,73.07c-1.87-3.49-4.17-6.46-6.9-8.78-1.23-1.05-2.53-2.04-3.86-2.97V29.21c0-5.88-1.03-10.03-3.16-12.69-2.2-2.74-5.72-4.13-10.45-4.13s-8.28,1.44-10.47,4.27c-2.12,2.73-3.15,6.84-3.15,12.55v4.55c0,5.25,1.02,9.58,3.04,12.87,1.96,3.2,4.46,5.98,7.45,8.26,2.89,2.2,6.06,4.23,9.44,6.02,3.19,1.7,6.18,3.72,8.89,6.01,2.63,2.23,4.85,5.15,6.58,8.66,1.73,3.51,2.61,8.13,2.61,13.73v9.58c0,3.99-.39,7.64-1.16,10.85-.75,3.09-2.02,5.76-3.78,7.94-1.73,2.14-4.16,3.81-7.24,4.97-3.18,1.2-7.28,1.81-12.2,1.81s-9.03-.61-12.2-1.81c-3.07-1.16-5.51-2.83-7.24-4.97-1.76-2.19-3.04-4.86-3.78-7.94-.77-3.18-1.16-6.83-1.16-10.85v-48.27c1.86,3.56,4.15,6.63,6.86,9.08,1.24,1.13,2.56,2.14,3.9,3.12v36.07c0,5.9,1.04,10.02,3.18,12.59,2.19,2.65,5.7,3.99,10.43,3.99s8.25-1.39,10.45-4.13c2.13-2.66,3.16-6.73,3.16-12.45v-9.1c0-5.08-1.02-9.3-3.05-12.54-1.97-3.12-4.48-5.82-7.46-8.02-2.86-2.1-6.03-4.09-9.42-5.89-3.16-1.67-6.13-3.76-8.84-6.21-2.65-2.39-4.87-5.43-6.62-9.05-1.73-3.57-2.61-8.39-2.61-14.33v-4.55c0-4.02.39-7.71,1.17-10.98.74-3.16,2.04-5.85,3.87-8.02,1.81-2.15,4.29-3.83,7.38-5,3.17-1.2,7.2-1.8,11.96-1.8,9.52,0,16.01,2.26,19.27,6.71,3.39,4.63,5.11,11.05,5.11,19.1v43.86ZM110.21,29.21v29.84c-.7-.42-1.42-.82-2.14-1.2-3.21-1.7-6.22-3.62-8.95-5.71-2.64-2.02-4.86-4.47-6.59-7.31-1.68-2.74-2.53-6.47-2.53-11.07v-4.55c0-4.85.81-8.36,2.42-10.44,1.51-1.96,4.03-2.91,7.68-2.91s6.18.92,7.7,2.81c1.6,1.99,2.41,5.54,2.41,10.53ZM90,82.61v-17.5c.71.43,1.4.92,2.13,1.31,3.24,1.72,6.26,3.61,8.98,5.61,2.63,1.94,4.84,4.32,6.57,7.06,1.67,2.67,2.52,6.27,2.52,10.7v9.1c0,4.84-.81,8.3-2.41,10.29-1.52,1.9-4.04,2.82-7.7,2.82s-6.22-.91-7.72-2.72c-1.58-1.9-2.39-5.4-2.39-10.39v-16.28Z"/>
</svg>